SCALED TO 16:9 HDTV RESOLUTION

Ne-Yo ΓÇô Forever Now Lyrics

Was gonna give you these flowers tonight
Was gonna ask you to stay
Practiced so that I would say it just right
But now there are no words to say.

As I watch you kiss him softly the same way you kissed me
I scream what am I gonna do with forever now?
tell me what am I gonna do with forever now?
All the plans weΓÇÖve made donΓÇÖt work if youΓÇÖre not around
So tell me what am I gonna do with forever now?
What do I do now?

What do I do now?

In slow motion I let these flowers hit the ground
and right before I turn to leave
I watch you kiss him softy then look up and see me

Chorus:
And I scream what am I gonna do with forever now?
tell me what am I gonna do with forever now?
All the plans weΓÇÖve made donΓÇÖt work if youΓÇÖre not around
So tell me what am I gonna do with forever now?
What do I do now?
Everything you said we would be
all the things you said we do
I will run my life around the thought of me and you

Chorus:
And I scream what am I gonna do with forever now?
(what do I do, what do I do?)
tell me what am I gonna do with forever now?
(what do I do, what do I do?)
All the plans weΓÇÖve made donΓÇÖt work if youΓÇÖre not around
So tell me what am I gonna do with forever now?
What do I do now?

What do I do now?
What do I do now?

What do I do, what do I do now?
What do I do now?
What do I do, what do I do now?


INFO=

General
Complete name                            : Ne-yo - Forever Now [Official Video] 720p HD 2012 - cRcWoRLd .mp4
Format                                   : MPEG-4
Format profile                           : Base Media / Version 2
Codec ID                                 : mp42
File size                                : 32.7 MiB
Duration                                 : 4mn 44s
Overall bit rate mode                    : Variable
Overall bit rate                         : 967 Kbps

Video
ID                                       : 1
Format                                   : AVC
Format/Info                              : Advanced Video Codec
Format profile                           : High@L3.1
Format settings, CABAC                   : No
Format settings, ReFrames                : 4 frames
Codec ID                                 : avc1
Codec ID/Info                            : Advanced Video Coding
Duration                                 : 4mn 43s
Bit rate mode                            : Variable
Bit rate                                 : 800 Kbps
Width                                    : 1 280 pixels
Height                                   : 384 pixels
Display aspect ratio                     : 16:9
Original display aspect ratio            : 16:9
Frame rate mode                          : Variable
Frame rate                               : 23.976 fps
Minimum frame rate                       : 23.974 fps
Maximum frame rate                       : 23.981 fps
Color space                              : YUV
Chroma subsampling                       : 4:2:0
Bit depth                                : 8 bits
Scan type                                : Progressive
Bits/(Pixel*Frame)                       : 0.068
Stream size                              : 27.3 MiB (83%)
Writing library                          : x264 core

Audio
ID                                       : 2
Format                                   : AAC
Format/Info                              : Advanced Audio Codec
Format profile                           : LC
Codec ID                                 : 40
Duration                                 : 4mn 44s
Bit rate mode                            : Variable
Bit rate                                 : 157 Kbps
Maximum bit rate                         : 290 Kbps
Channel(s)                               : 2 channels
Channel positions                        : Front: L R
Sampling rate                            : 44.1 KHz
Compression mode                         : Lossy
Stream size                              : 5.30 MiB (16%)
 
http://www.postimg.com/95000/ne-yo---forever-now-%5Bofficial-video%5D-720p-hd-2012---crcworld-.mp4_thumbs_%5B2012.12.10_20.06.51%5D-94737.jpg

fb . com / CRCWORLDtorrents